<?xml version="1.0" standalone="no"?><!DOCTYPE svg PUBLIC "-//W3C//DTD SVG 1.1//EN" "http://www.w3.org/Graphics/SVG/1.1/DTD/svg11.dtd"><svg t="1514787664094" class="icon" style="" viewBox="0 0 1024 1024" version="1.1" xmlns="http://www.w3.org/2000/svg" p-id="3353" xmlns:xlink="http://www.w3.org/1999/xlink" width="200" height="200"><defs><style type="text/css"></style></defs><path d="M503.542374 131.026172c-211.639165 0-383.807363 172.168198-383.807363 383.806339 0 211.623815 172.168198 383.806339 383.807363 383.806339 87.795579 0 170.424484-28.859281 238.947114-83.446527 3.131317-2.482541 5.098111-6.046716 5.554506-10.025331 0.446162-3.963265-0.671289-7.881504-3.170203-10.997472-2.852978-3.592828-7.126304-5.644557-11.706623-5.644557-3.423983 0-6.641257 1.12666-9.31618 3.254114-63.170738 50.329269-139.344628 76.921927-220.306568 76.921927-195.135282 0-353.883843-158.747537-353.883843-353.86747 0-195.134259 158.749584-353.882819 353.883843-353.882819 195.127096 0 353.874633 158.74856 353.874633 353.882819 0 66.279542-18.424628 130.892119-53.299927 186.851619-4.357238 7.002484-2.205225 16.241916 4.798283 20.60734 2.37407 1.480724 5.111414 2.267647 7.896854 2.267647 5.212722 0 9.971096-2.638083 12.723789-7.049556 37.820374-60.72606 57.81066-130.798998 57.81066-202.678072C887.34769 303.193347 715.172329 131.026172 503.542374 131.026172z" p-id="3354" fill="#333333"></path><path d="M418.124959 623.683638c-17.762549 0-34.980699-4.113691-51.179636-12.228509-15.534811-7.782244-29.462009-18.892279-41.394782-33.026184-24.309662-28.791743-37.696554-66.986647-37.696554-107.552551 0-40.564881 13.387915-78.762855 37.696554-107.554598 11.932774-14.131859 25.860994-25.243941 41.394782-33.025161 16.197914-8.114818 33.417087-12.228509 51.179636-12.228509 17.762549 0 34.982746 4.113691 51.179636 12.228509 15.534811 7.78122 29.462009 18.892279 41.395806 33.025161 24.308639 28.792767 37.69553 66.989717 37.69553 107.554598 0 40.565904-13.386892 78.760808-37.69553 107.552551-11.933797 14.133905-25.862018 25.243941-41.395806 33.026184C453.107705 619.569948 435.886485 623.683638 418.124959 623.683638L418.124959 623.683638zM418.124959 334.153476c-62.959937 0-114.183576 61.33288-114.183576 136.722918 0 75.387991 51.222615 136.721895 114.183576 136.721895 62.961984 0 114.185622-61.333904 114.185622-136.721895C532.310581 395.486356 481.086943 334.153476 418.124959 334.153476L418.124959 334.153476zM619.665115 626.910123c-23.052019 0-44.924165-7.673773-63.302745-22.221094-18.194384-14.399965-32.023344-34.778084-39.98876-58.928111-1.394766-4.220115 0.899486-8.767688 5.118578-10.159384 4.217045-1.393743 8.764618 0.899486 10.156314 5.118578 14.07353 42.659589 48.581462 70.103638 88.041172 70.103638 0.23536 0 0.467651-0.002047 0.701988-0.005117 52.477188-0.433882 94.753037-51.788503 94.240361-114.475218-0.035816-4.442172 3.533476-8.073886 7.976672-8.109702l0.066515 0c4.412496 0 8.007371 3.557012 8.04421 7.977695 0.282433 34.416857-10.866489 66.929342-31.390941 91.543949-20.844747 24.99937-48.831148 38.905078-78.80174 39.151695C620.240213 626.908076 619.952664 626.910123 619.665115 626.910123L619.665115 626.910123zM722.67214 504.320087c-4.411473 0-8.004301-3.557012-8.040117-7.975649-0.251733-30.612205-10.54517-59.251475-28.984125-80.641645-18.113543-21.010523-41.974997-32.471552-67.11456-32.257681-30.356378 0.251733-60.796668 17.912975-75.752288 43.954071-2.211365 3.851725-7.126304 5.180999-10.981099 2.967588-3.852748-2.212388-5.182023-7.127328-2.969635-10.979052 17.703197-30.823006 53.697993-51.731198 89.568968-52.02898 29.983895-0.249687 58.181097 13.190417 79.432097 37.839817 20.926612 24.270776 32.603559 56.593949 32.887015 91.013877 0.034792 4.442172-3.536546 8.071839-7.978718 8.107655C722.717166 504.320087 722.69363 504.320087 722.67214 504.320087L722.67214 504.320087zM415.678234 762.183016c-0.654916 0-1.319042-0.143263-1.948375-0.443092-2.254344-1.079588-3.207042-3.781116-2.1295-6.03546 16.172331-33.815153 11.484565-55.778374 7.349385-75.1557-3.039219-14.237259-5.907547-27.683503-0.692778-43.472094 0.783853-2.372024 3.344165-3.660366 5.716188-2.87856 2.372024 0.783853 3.660366 3.344165 2.876514 5.716188-4.447289 13.458523-1.945305 25.177426 0.949628 38.746466 4.438079 20.787442 9.465582 44.352137-8.035 80.945567C418.98556 761.233388 417.365666 762.183016 415.678234 762.183016L415.678234 762.183016zM615.889115 733.424019c-0.367367 0-0.738827-0.057305-1.103124-0.177032-1.847068-0.608867-2.847861-2.600221-2.238994-4.445242 6.993275-21.177322 4.6366-34.716686 2.358721-47.808866-1.904373-10.952446-3.877307-22.277376-0.062422-37.119409 0.484024-1.882883 2.4017-3.01773 4.28356-2.532683 1.883907 0.484024 3.015683 2.400676 2.533706 4.28356-3.437286 13.375635-1.681292 23.471574 0.180102 34.161031 2.314719 13.296841 4.937452 28.367071-2.609431 51.222615C618.74107 732.48667 617.367793 733.424019 615.889115 733.424019L615.889115 733.424019zM334.156546 442.427458l-0.021489 0c-2.220574-0.00921-4.013407-1.820462-4.000104-4.042059 0.061398-12.999059 5.878894-28.763091 15.560394-42.170448 10.959609-15.175631 25.660426-25.818015 41.387619-29.964452 2.146896-0.565888 4.345981 0.717338 4.912893 2.864234 0.565888 2.14792-0.714268 4.345981-2.861164 4.912893-31.420617 8.284687-50.856271 43.091424-50.957579 64.396659C338.164836 440.640766 336.367911 442.427458 334.156546 442.427458L334.156546 442.427458zM642.527822 591.792301c18.251689-5.061272 33.378202-17.939581 40.126906-35.878139M405.752164 640.506792c-1.763157 0-3.367701-1.02433-4.105504-2.628874-0.74906-1.61887-0.475837-3.52836 0.699941-4.871961l17.158798-19.641339c0.847298-0.969071 2.065032-1.529843 3.351328-1.547239 0.01842 0 0.037862 0 0.054235 0 1.26583 0 2.477424 0.533143 3.333932 1.466398l17.625426 19.218714c1.206478 1.314948 1.528819 3.214205 0.820692 4.852518-0.710175 1.638313-2.314719 2.708692-4.098341 2.729158l-34.785248 0.422625L405.752164 640.506792 405.752164 640.506792zM422.991804 623.125937l-7.172353 8.211009 14.541181-0.178055L422.991804 623.125937 422.991804 623.125937zM629.107161 643.828444l-0.026606 0-21.711488-0.167822c-1.397836-0.00921-2.657526-0.849344-3.207042-2.134617-0.551562-1.286296-0.287549-2.775206 0.671289-3.794419l10.943236-11.639085c0.671289-0.714268 1.599428-1.133823 2.589988-1.108241 0.981351 0.007163 1.914606 0.421602 2.573615 1.147126l10.765181 11.80793c0.942465 1.034563 1.184989 2.526543 0.613984 3.804652C631.754454 643.012869 630.495788 643.828444 629.107161 643.828444L629.107161 643.828444zM615.476723 636.684744l5.603625 0.044002-2.778276-3.046383L615.476723 636.684744 615.476723 636.684744zM615.476723 636.684744" p-id="3355" fill="#333333"></path></svg>